<svg xmlns="http://www.w3.org/2000/svg" width="115" height="34" viewBox="0 0 115 34" version="1.1"><path d="M 10 1.033 C 10 2.612, 14.817 11.769, 16.048 12.529 C 18.416 13.993, 18.222 11.695, 15.494 5.988 C 13.920 2.695, 12.040 0, 11.316 0 C 10.592 0, 10 0.465, 10 1.033 M 19 6 C 19 9.300, 19.402 12, 19.893 12 C 21.252 12, 22 9.308, 22 4.418 C 22 1.158, 21.607 0, 20.500 0 C 19.333 0, 19 1.333, 19 6 M 24.688 5.563 C 22.146 10.747, 21.878 13.811, 24.088 12.446 C 25.218 11.747, 30 2.516, 30 1.033 C 30 -1.833, 27.104 0.637, 24.688 5.563 M 4.667 6.667 C 4.300 7.033, 4 7.632, 4 7.997 C 4 8.930, 12.594 15, 13.913 15 C 16.279 15, 14.699 12.336, 10.503 9.250 C 5.693 5.713, 5.643 5.690, 4.667 6.667 M 29.906 9.250 C 25.562 12.573, 23.914 15, 26.003 15 C 27.895 15, 36 8.782, 36 7.330 C 36 5.260, 34.509 5.729, 29.906 9.250 M 16.316 16.250 C 10.141 22.775, 10.062 25.088, 15.809 31.250 C 19.138 34.819, 20.934 34.718, 24.659 30.750 C 28.500 26.659, 29.289 24.434, 27.876 21.678 C 26.639 19.263, 20.954 13, 20 13 C 19.666 13, 18.008 14.462, 16.316 16.250 M 2 15.304 C 2 16.909, 11.303 19.549, 13.084 18.448 C 15.740 16.807, 13.655 15.521, 6.628 14.467 C 2.837 13.898, 2 14.050, 2 15.304 M 30.250 15.119 C 28.462 15.635, 27 16.719, 27 17.529 C 27 19.286, 26.670 19.264, 32.951 17.917 C 36.132 17.235, 38 16.310, 38 15.417 C 38 13.813, 35.152 13.703, 30.250 15.119" stroke="none" fill="#2664cd" fill-rule="evenodd"/><path d="M 43 15.927 C 43 24.391, 43.137 25, 45.039 25 C 46.957 25, 47.061 24.483, 46.789 16.261 C 46.545 8.870, 46.230 7.471, 44.750 7.188 C 43.187 6.889, 43 7.825, 43 15.927 M 49 16 C 49 24.333, 49.148 25, 51 25 C 52.852 25, 53 24.333, 53 16 C 53 7.667, 52.852 7, 51 7 C 49.148 7, 49 7.667, 49 16 M 58.250 11.729 L 55 12.127 55 18.563 C 55 24.273, 55.220 25, 56.945 25 C 58.556 25, 58.943 24.184, 59.195 20.259 C 59.421 16.753, 59.941 15.434, 61.193 15.197 C 62.561 14.937, 62.944 15.797, 63.193 19.679 C 63.421 23.243, 63.937 24.565, 65.193 24.803 C 66.561 25.063, 66.944 24.203, 67.193 20.312 C 67.451 16.269, 67.820 15.500, 69.500 15.500 C 71.177 15.500, 71.549 16.268, 71.805 20.250 C 72.057 24.184, 72.444 25, 74.055 25 C 75.722 25, 76 24.286, 76 20 C 76 14.033, 73.254 10.355, 69.658 11.505 C 67.019 12.348, 64.977 12.441, 63 11.810 C 62.175 11.547, 60.038 11.511, 58.250 11.729 M 81.315 12.007 C 76.903 13.785, 75.665 19.665, 79 23 C 81.978 25.978, 87.330 25.667, 89.927 22.365 C 92.693 18.850, 92.546 17.392, 89.077 13.923 C 86.003 10.849, 84.878 10.572, 81.315 12.007 M 96.250 11.723 L 93 12.127 93 18.563 C 93 24.333, 93.207 25, 95 25 C 96.693 25, 97 24.333, 97 20.661 C 97 17.011, 97.395 16.141, 99.480 15.191 C 101.099 14.453, 101.757 13.529, 101.373 12.530 C 101.050 11.689, 100.497 11.072, 100.143 11.160 C 99.789 11.248, 98.037 11.502, 96.250 11.723 M 104.223 12.557 C 101.923 14.168, 101.189 17, 103.071 17 C 103.661 17, 103.436 17.707, 102.571 18.571 C 100.714 20.429, 100.697 20.566, 102.025 23.047 C 102.839 24.568, 104.076 24.940, 108.025 24.851 L 113 24.739 113 19.426 C 113 15.070, 112.600 13.833, 110.777 12.557 C 107.996 10.608, 107.004 10.608, 104.223 12.557 M 81.709 15.624 C 80.160 17.173, 81.039 20.878, 83.112 21.535 C 86.057 22.470, 88.881 19.624, 87.381 17.231 C 86.227 15.390, 82.889 14.444, 81.709 15.624 M 105.500 16 C 105.148 16.569, 106.009 17, 107.500 17 C 108.991 17, 109.852 16.569, 109.500 16 C 109.160 15.450, 108.260 15, 107.500 15 C 106.740 15, 105.840 15.450, 105.500 16 M 105.500 21 C 105.160 21.550, 105.782 22, 106.882 22 C 107.982 22, 109.160 21.550, 109.500 21 C 109.840 20.450, 109.218 20, 108.118 20 C 107.018 20, 105.840 20.450, 105.500 21" stroke="none" fill="#fcfcfc" fill-rule="evenodd"/></svg>